<svg xmlns="http://www.w3.org/2000/svg" xmlns:xlink="http://www.w3.org/1999/xlink" version="1.1" x="0px" y="0px" viewBox="0 0 100 125" style="enable-background:new 0 0 100 100;" xml:space="preserve"><g fill="#fff"><path d="M82.9111328,86.3129883h-1.7998047c-0.5522461,0-1,0.4477539-1,1s0.4477539,1,1,1h1.7998047c0.5522461,0,1-0.4477539,1-1   S83.4633789,86.3129883,82.9111328,86.3129883z"/><path d="M85.1342773,50.5986328h-8.2510986v-6.4854736H17.0280151v9.8648682c0.0016479,0,0.0030518-0.0009766,0.0046997-0.0009766   h35.3520508c0.5522461,0,1,0.4477539,1,1s-0.4477539,1-1,1H17.0327148c-0.0016479,0-0.0030518-0.0009766-0.0046997-0.0009766   v1.4141846c0,13.859436,9.4381714,25.5234985,22.2323608,28.9227295H11c-0.5522461,0-1,0.4477539-1,1s0.4477539,1,1,1h62.9833984   c0.5522461,0,1-0.4477539,1-1s-0.4477539-1-1-1H54.6339111c6.3721313-1.6883545,11.9050293-5.4259644,15.8577881-10.4775391   c5.1100464-0.2265015,9.8861084-2.2987061,13.5239258-5.9365234C87.8745117,66.0556641,90,60.9291992,90,55.4643555   C90,52.78125,87.8173828,50.5986328,85.1342773,50.5986328z M59.8657227,55.9770508h-1.3271484c-0.5522461,0-1-0.4477539-1-1   s0.4477539-1,1-1h1.3271484c0.5522461,0,1,0.4477539,1,1S60.4179688,55.9770508,59.8657227,55.9770508z M82.6030273,68.4833984   c-2.8981323,2.897644-6.5957642,4.6937256-10.5928955,5.2199097c3.0821533-4.6969604,4.8730469-10.2896118,4.8730469-16.3130493   v-4.791626h8.2510986C86.7143555,52.5986328,88,53.8842773,88,55.4643555   C88,60.3935547,86.0839844,65.0166016,82.6030273,68.4833984z"/><path d="M66.3286133,13.6870117h1.4404297c0.5522461,0,1-0.4477539,1-1s-0.4477539-1-1-1h-1.4404297c-0.5522461,0-1,0.4477539-1,1   S65.7763672,13.6870117,66.3286133,13.6870117z"/><path d="M27.3051758,38.6577148c0.0356445,0.003418,0.0703125,0.0053711,0.1049805,0.0053711   c0.5058594,0,0.9399414-0.3823242,0.9936523-0.8959961c0.0478516-0.4584961,1.2866211-11.2299805,11.1313477-11.2299805   c4.4462891,0,8.5014648-2.0708008,11.7270508-5.9882813c2.5009766-3.0371094,5.9306641-5.1850586,9.918457-6.2124023   c0.534668-0.1376953,0.8564453-0.6826172,0.71875-1.2177734s-0.6806641-0.8574219-1.2177734-0.71875   c-4.4003906,1.1333008-8.1914063,3.5112305-10.9633789,6.8774414c-2.8735352,3.4902344-6.2998047,5.2597656-10.1831055,5.2597656   c-11.6254883,0-13.1069336,12.8916016-13.1206055,13.0219727C26.3574219,38.1083984,26.7558594,38.6000977,27.3051758,38.6577148z"/><path d="M39.7709961,37.4667969c-0.1083984,0.5415039,0.2426758,1.0683594,0.7841797,1.1767578   c0.0664063,0.0131836,0.1323242,0.0195313,0.1972656,0.0195313c0.4667969,0,0.8842773-0.3286133,0.9794922-0.8037109   c0.0112305-0.0556641,1.2211914-5.5307617,11.1455078-5.5307617c4.4462891,0,8.5014648-2.0708008,11.7270508-5.9882813   c3.590332-4.3608398,9.0820313-6.8618164,15.0664063-6.8618164h1.4399414c0.5522461,0,1-0.4477539,1-1s-0.4477539-1-1-1h-1.4399414   c-6.5844727,0-12.6386719,2.7666016-16.6103516,7.590332c-2.8735352,3.4902344-6.2998047,5.2597656-10.1831055,5.2597656   C41.331543,30.3286133,39.8291016,37.175293,39.7709961,37.4667969z"/><path d="M71.4511719,30.5825195c-3.0224609,6.5825195-12.7558594,6.0859375-12.8525391,6.0825195   c-0.5551758-0.0390625-1.0244141,0.3867188-1.0576172,0.9384766c-0.0332031,0.5507813,0.3857422,1.0239258,0.9365234,1.0576172   c0.0644531,0.0039063,0.3354492,0.0185547,0.7626953,0.0185547c2.5908203,0,10.9414063-0.5380859,14.0283203-7.2631836   c0.2304688-0.5014648,0.0102539-1.0952148-0.4916992-1.3256836C72.2783203,29.8623047,71.6816406,30.0805664,71.4511719,30.5825195   z"/></g></svg>
